<svg xmlns="http://www.w3.org/2000/svg" xmlns:xlink="http://www.w3.org/1999/xlink" width="310" zoomAndPan="magnify" viewBox="0 0 232.5 232.499992" height="310" preserveAspectRatio="xMidYMid meet" version="1.0"><defs><g/><clipPath id="b2594e8a92"><path d="M 4.761719 34 L 230.511719 34 L 230.511719 232 L 4.761719 232 Z M 4.761719 34 " clip-rule="nonzero"/></clipPath><clipPath id="07bfba4478"><path d="M 52 0.789062 L 169 0.789062 L 169 75 L 52 75 Z M 52 0.789062 " clip-rule="nonzero"/></clipPath></defs><g clip-path="url(#b2594e8a92)"><path fill="#2393ae" d="M 143.398438 34.824219 C 138.964844 34.824219 134.675781 35.25 130.554688 35.964844 C 125.273438 35.292969 112.882812 34.476562 107.394531 34.476562 C 52.742188 34.476562 4.929688 54.941406 4.929688 126.570312 C 4.929688 184.769531 50.394531 231.949219 114.421875 231.949219 C 178.453125 231.949219 230.355469 184.769531 230.355469 126.570312 C 230.347656 54.117188 169.816406 34.824219 143.398438 34.824219 Z M 143.398438 34.824219 " fill-opacity="1" fill-rule="nonzero"/></g><g clip-path="url(#07bfba4478)"><path fill="#265073" d="M 52.742188 0.992188 C 63.300781 11.527344 70.609375 15.585938 73.859375 32.617188 C 75.78125 42.6875 88.476562 42.339844 88.476562 42.339844 C 88.476562 42.339844 63.300781 53.695312 52.742188 64.242188 C 52.742188 64.242188 84.410156 53.695312 94.96875 53.695312 C 94.96875 53.695312 116.082031 64.242188 116.082031 74.777344 C 116.082031 74.777344 116.082031 53.695312 105.527344 53.695312 C 105.527344 53.695312 137.191406 53.695312 137.191406 74.777344 C 137.191406 74.777344 137.191406 43.152344 126.632812 43.152344 C 126.632812 43.152344 158.308594 32.617188 168.867188 43.152344 C 168.867188 43.152344 157.992188 32.074219 137.191406 32.617188 C 137.191406 32.617188 147.757812 22.070312 168.867188 22.070312 C 168.867188 22.070312 134.761719 12.339844 124.203125 33.425781 C 124.203125 33.425781 115.269531 24.507812 133.132812 6.664062 C 133.132812 6.664062 105.527344 11.527344 105.527344 32.617188 C 105.527344 32.617188 95.519531 32.359375 88.476562 24.507812 C 74.664062 9.101562 52.742188 0.992188 52.742188 0.992188 Z M 52.742188 0.992188 " fill-opacity="1" fill-rule="nonzero"/></g><g fill="#ffffff" fill-opacity="1"><g transform="translate(24.000001, 140.14564)"><g><path d="M 13.515625 -20.578125 C 11.554688 -20.578125 10.039062 -19.835938 8.96875 -18.359375 C 7.894531 -16.890625 7.359375 -14.835938 7.359375 -12.203125 C 7.359375 -6.734375 9.410156 -4 13.515625 -4 C 15.242188 -4 17.332031 -4.429688 19.78125 -5.296875 L 19.78125 -0.921875 C 17.769531 -0.0859375 15.519531 0.328125 13.03125 0.328125 C 9.457031 0.328125 6.722656 -0.75 4.828125 -2.90625 C 2.941406 -5.070312 2 -8.179688 2 -12.234375 C 2 -14.785156 2.460938 -17.019531 3.390625 -18.9375 C 4.316406 -20.863281 5.648438 -22.335938 7.390625 -23.359375 C 9.140625 -24.390625 11.179688 -24.90625 13.515625 -24.90625 C 15.898438 -24.90625 18.296875 -24.328125 20.703125 -23.171875 L 19.03125 -18.9375 C 18.113281 -19.375 17.1875 -19.753906 16.25 -20.078125 C 15.320312 -20.410156 14.410156 -20.578125 13.515625 -20.578125 Z M 13.515625 -20.578125 "/></g></g></g><g fill="#ffffff" fill-opacity="1"><g transform="translate(45.908864, 140.14564)"><g><path d="M 14.609375 0 L 13.625 -2.546875 L 13.484375 -2.546875 C 12.617188 -1.460938 11.726562 -0.710938 10.8125 -0.296875 C 9.90625 0.117188 8.71875 0.328125 7.25 0.328125 C 5.445312 0.328125 4.023438 -0.179688 2.984375 -1.203125 C 1.953125 -2.234375 1.4375 -3.703125 1.4375 -5.609375 C 1.4375 -7.597656 2.132812 -9.066406 3.53125 -10.015625 C 4.925781 -10.960938 7.03125 -11.488281 9.84375 -11.59375 L 13.09375 -11.6875 L 13.09375 -12.515625 C 13.09375 -14.410156 12.117188 -15.359375 10.171875 -15.359375 C 8.671875 -15.359375 6.910156 -14.90625 4.890625 -14 L 3.1875 -17.46875 C 5.351562 -18.59375 7.75 -19.15625 10.375 -19.15625 C 12.894531 -19.15625 14.828125 -18.609375 16.171875 -17.515625 C 17.515625 -16.421875 18.1875 -14.753906 18.1875 -12.515625 L 18.1875 0 Z M 13.09375 -8.703125 L 11.109375 -8.625 C 9.628906 -8.582031 8.523438 -8.316406 7.796875 -7.828125 C 7.066406 -7.335938 6.703125 -6.585938 6.703125 -5.578125 C 6.703125 -4.128906 7.53125 -3.40625 9.1875 -3.40625 C 10.375 -3.40625 11.320312 -3.742188 12.03125 -4.421875 C 12.738281 -5.109375 13.09375 -6.019531 13.09375 -7.15625 Z M 13.09375 -8.703125 "/></g></g></g><g fill="#ffffff" fill-opacity="1"><g transform="translate(66.676116, 140.14564)"><g><path d="M 13.171875 -19.125 C 13.859375 -19.125 14.429688 -19.070312 14.890625 -18.96875 L 14.515625 -14.171875 C 14.097656 -14.285156 13.59375 -14.34375 13 -14.34375 C 11.363281 -14.34375 10.085938 -13.921875 9.171875 -13.078125 C 8.265625 -12.242188 7.8125 -11.070312 7.8125 -9.5625 L 7.8125 0 L 2.6875 0 L 2.6875 -18.78125 L 6.5625 -18.78125 L 7.328125 -15.609375 L 7.578125 -15.609375 C 8.160156 -16.671875 8.945312 -17.519531 9.9375 -18.15625 C 10.925781 -18.800781 12.003906 -19.125 13.171875 -19.125 Z M 13.171875 -19.125 "/></g></g></g><g fill="#ffffff" fill-opacity="1"><g transform="translate(82.289326, 140.14564)"><g><path d="M 19.03125 -18.78125 L 19.03125 -16.171875 L 16.09375 -15.421875 C 16.625 -14.578125 16.890625 -13.632812 16.890625 -12.59375 C 16.890625 -10.582031 16.1875 -9.015625 14.78125 -7.890625 C 13.375 -6.765625 11.425781 -6.203125 8.9375 -6.203125 L 8.015625 -6.25 L 7.25 -6.328125 C 6.726562 -5.921875 6.46875 -5.472656 6.46875 -4.984375 C 6.46875 -4.242188 7.40625 -3.875 9.28125 -3.875 L 12.484375 -3.875 C 14.535156 -3.875 16.101562 -3.429688 17.1875 -2.546875 C 18.269531 -1.660156 18.8125 -0.363281 18.8125 1.34375 C 18.8125 3.539062 17.894531 5.242188 16.0625 6.453125 C 14.226562 7.660156 11.597656 8.265625 8.171875 8.265625 C 5.554688 8.265625 3.554688 7.804688 2.171875 6.890625 C 0.785156 5.984375 0.09375 4.707031 0.09375 3.0625 C 0.09375 1.925781 0.445312 0.976562 1.15625 0.21875 C 1.863281 -0.539062 2.898438 -1.082031 4.265625 -1.40625 C 3.734375 -1.632812 3.269531 -2.003906 2.875 -2.515625 C 2.488281 -3.023438 2.296875 -3.5625 2.296875 -4.125 C 2.296875 -4.84375 2.503906 -5.441406 2.921875 -5.921875 C 3.335938 -6.398438 3.9375 -6.867188 4.71875 -7.328125 C 3.726562 -7.742188 2.945312 -8.421875 2.375 -9.359375 C 1.800781 -10.304688 1.515625 -11.414062 1.515625 -12.6875 C 1.515625 -14.738281 2.179688 -16.320312 3.515625 -17.4375 C 4.847656 -18.5625 6.75 -19.125 9.21875 -19.125 C 9.75 -19.125 10.375 -19.078125 11.09375 -18.984375 C 11.8125 -18.890625 12.273438 -18.820312 12.484375 -18.78125 Z M 4.53125 2.65625 C 4.53125 3.363281 4.867188 3.914062 5.546875 4.3125 C 6.222656 4.71875 7.171875 4.921875 8.390625 4.921875 C 10.234375 4.921875 11.675781 4.664062 12.71875 4.15625 C 13.757812 3.65625 14.28125 2.96875 14.28125 2.09375 C 14.28125 1.394531 13.96875 0.910156 13.34375 0.640625 C 12.726562 0.367188 11.78125 0.234375 10.5 0.234375 L 7.84375 0.234375 C 6.90625 0.234375 6.117188 0.453125 5.484375 0.890625 C 4.847656 1.335938 4.53125 1.925781 4.53125 2.65625 Z M 6.390625 -12.625 C 6.390625 -11.601562 6.625 -10.796875 7.09375 -10.203125 C 7.5625 -9.609375 8.269531 -9.3125 9.21875 -9.3125 C 10.175781 -9.3125 10.878906 -9.609375 11.328125 -10.203125 C 11.773438 -10.796875 12 -11.601562 12 -12.625 C 12 -14.882812 11.070312 -16.015625 9.21875 -16.015625 C 7.332031 -16.015625 6.390625 -14.882812 6.390625 -12.625 Z M 6.390625 -12.625 "/></g></g></g><g fill="#ffffff" fill-opacity="1"><g transform="translate(101.713506, 140.14564)"><g><path d="M 14.609375 0 L 13.625 -2.546875 L 13.484375 -2.546875 C 12.617188 -1.460938 11.726562 -0.710938 10.8125 -0.296875 C 9.90625 0.117188 8.71875 0.328125 7.25 0.328125 C 5.445312 0.328125 4.023438 -0.179688 2.984375 -1.203125 C 1.953125 -2.234375 1.4375 -3.703125 1.4375 -5.609375 C 1.4375 -7.597656 2.132812 -9.066406 3.53125 -10.015625 C 4.925781 -10.960938 7.03125 -11.488281 9.84375 -11.59375 L 13.09375 -11.6875 L 13.09375 -12.515625 C 13.09375 -14.410156 12.117188 -15.359375 10.171875 -15.359375 C 8.671875 -15.359375 6.910156 -14.90625 4.890625 -14 L 3.1875 -17.46875 C 5.351562 -18.59375 7.75 -19.15625 10.375 -19.15625 C 12.894531 -19.15625 14.828125 -18.609375 16.171875 -17.515625 C 17.515625 -16.421875 18.1875 -14.753906 18.1875 -12.515625 L 18.1875 0 Z M 13.09375 -8.703125 L 11.109375 -8.625 C 9.628906 -8.582031 8.523438 -8.316406 7.796875 -7.828125 C 7.066406 -7.335938 6.703125 -6.585938 6.703125 -5.578125 C 6.703125 -4.128906 7.53125 -3.40625 9.1875 -3.40625 C 10.375 -3.40625 11.320312 -3.742188 12.03125 -4.421875 C 12.738281 -5.109375 13.09375 -6.019531 13.09375 -7.15625 Z M 13.09375 -8.703125 "/></g></g></g><g fill="#ffffff" fill-opacity="1"><g transform="translate(122.480758, 140.14564)"><g><path d="M 20.015625 0 L 14.890625 0 L 14.890625 -10.96875 C 14.890625 -12.320312 14.648438 -13.335938 14.171875 -14.015625 C 13.691406 -14.691406 12.925781 -15.03125 11.875 -15.03125 C 10.4375 -15.03125 9.398438 -14.550781 8.765625 -13.59375 C 8.128906 -12.632812 7.8125 -11.046875 7.8125 -8.828125 L 7.8125 0 L 2.6875 0 L 2.6875 -18.78125 L 6.59375 -18.78125 L 7.28125 -16.375 L 7.578125 -16.375 C 8.148438 -17.28125 8.9375 -17.960938 9.9375 -18.421875 C 10.9375 -18.890625 12.070312 -19.125 13.34375 -19.125 C 15.53125 -19.125 17.1875 -18.53125 18.3125 -17.34375 C 19.445312 -16.164062 20.015625 -14.460938 20.015625 -12.234375 Z M 20.015625 0 "/></g></g></g><g fill="#ffffff" fill-opacity="1"><g transform="translate(145.07794, 140.14564)"><g><path d="M 8.625 0.328125 C 6.425781 0.328125 4.695312 -0.523438 3.4375 -2.234375 C 2.175781 -3.941406 1.546875 -6.316406 1.546875 -9.359375 C 1.546875 -12.429688 2.1875 -14.828125 3.46875 -16.546875 C 4.75 -18.265625 6.515625 -19.125 8.765625 -19.125 C 11.128906 -19.125 12.929688 -18.207031 14.171875 -16.375 L 14.34375 -16.375 C 14.082031 -17.769531 13.953125 -19.015625 13.953125 -20.109375 L 13.953125 -26.125 L 19.09375 -26.125 L 19.09375 0 L 15.15625 0 L 14.171875 -2.4375 L 13.953125 -2.4375 C 12.785156 -0.59375 11.007812 0.328125 8.625 0.328125 Z M 10.421875 -3.75 C 11.734375 -3.75 12.691406 -4.128906 13.296875 -4.890625 C 13.910156 -5.648438 14.25 -6.941406 14.3125 -8.765625 L 14.3125 -9.3125 C 14.3125 -11.332031 14 -12.78125 13.375 -13.65625 C 12.75 -14.53125 11.738281 -14.96875 10.34375 -14.96875 C 9.195312 -14.96875 8.304688 -14.484375 7.671875 -13.515625 C 7.046875 -12.546875 6.734375 -11.132812 6.734375 -9.28125 C 6.734375 -7.4375 7.050781 -6.050781 7.6875 -5.125 C 8.320312 -4.207031 9.234375 -3.75 10.421875 -3.75 Z M 10.421875 -3.75 "/></g></g></g><g fill="#ffffff" fill-opacity="1"><g transform="translate(166.835703, 140.14564)"><g><path d="M 6.765625 -9.421875 C 6.765625 -7.566406 7.066406 -6.160156 7.671875 -5.203125 C 8.285156 -4.253906 9.28125 -3.78125 10.65625 -3.78125 C 12.03125 -3.78125 13.015625 -4.25 13.609375 -5.1875 C 14.210938 -6.132812 14.515625 -7.546875 14.515625 -9.421875 C 14.515625 -11.273438 14.207031 -12.664062 13.59375 -13.59375 C 12.988281 -14.53125 12 -15 10.625 -15 C 9.257812 -15 8.273438 -14.535156 7.671875 -13.609375 C 7.066406 -12.679688 6.765625 -11.285156 6.765625 -9.421875 Z M 19.75 -9.421875 C 19.75 -6.367188 18.941406 -3.976562 17.328125 -2.25 C 15.710938 -0.53125 13.46875 0.328125 10.59375 0.328125 C 8.789062 0.328125 7.203125 -0.0625 5.828125 -0.84375 C 4.453125 -1.632812 3.394531 -2.769531 2.65625 -4.25 C 1.914062 -5.726562 1.546875 -7.453125 1.546875 -9.421875 C 1.546875 -12.484375 2.34375 -14.863281 3.9375 -16.5625 C 5.539062 -18.269531 7.796875 -19.125 10.703125 -19.125 C 12.503906 -19.125 14.09375 -18.734375 15.46875 -17.953125 C 16.84375 -17.171875 17.898438 -16.046875 18.640625 -14.578125 C 19.378906 -13.109375 19.75 -11.390625 19.75 -9.421875 Z M 19.75 -9.421875 "/></g></g></g><g fill="#ffffff" fill-opacity="1"><g transform="translate(188.123391, 140.14564)"><g><path d="M 1.96875 -2.40625 C 1.96875 -3.34375 2.21875 -4.050781 2.71875 -4.53125 C 3.21875 -5.007812 3.953125 -5.25 4.921875 -5.25 C 5.847656 -5.25 6.566406 -5.003906 7.078125 -4.515625 C 7.585938 -4.023438 7.84375 -3.320312 7.84375 -2.40625 C 7.84375 -1.519531 7.582031 -0.820312 7.0625 -0.3125 C 6.550781 0.195312 5.835938 0.453125 4.921875 0.453125 C 3.984375 0.453125 3.253906 0.203125 2.734375 -0.296875 C 2.222656 -0.796875 1.96875 -1.5 1.96875 -2.40625 Z M 1.96875 -2.40625 "/></g></g></g><g fill="#ffffff" fill-opacity="1"><g transform="translate(197.927815, 140.14564)"><g><path d="M 1.96875 -2.40625 C 1.96875 -3.34375 2.21875 -4.050781 2.71875 -4.53125 C 3.21875 -5.007812 3.953125 -5.25 4.921875 -5.25 C 5.847656 -5.25 6.566406 -5.003906 7.078125 -4.515625 C 7.585938 -4.023438 7.84375 -3.320312 7.84375 -2.40625 C 7.84375 -1.519531 7.582031 -0.820312 7.0625 -0.3125 C 6.550781 0.195312 5.835938 0.453125 4.921875 0.453125 C 3.984375 0.453125 3.253906 0.203125 2.734375 -0.296875 C 2.222656 -0.796875 1.96875 -1.5 1.96875 -2.40625 Z M 1.96875 -2.40625 "/></g></g></g><g fill="#ffffff" fill-opacity="1"><g transform="translate(207.732238, 140.14564)"><g><path d="M 1.96875 -2.40625 C 1.96875 -3.34375 2.21875 -4.050781 2.71875 -4.53125 C 3.21875 -5.007812 3.953125 -5.25 4.921875 -5.25 C 5.847656 -5.25 6.566406 -5.003906 7.078125 -4.515625 C 7.585938 -4.023438 7.84375 -3.320312 7.84375 -2.40625 C 7.84375 -1.519531 7.582031 -0.820312 7.0625 -0.3125 C 6.550781 0.195312 5.835938 0.453125 4.921875 0.453125 C 3.984375 0.453125 3.253906 0.203125 2.734375 -0.296875 C 2.222656 -0.796875 1.96875 -1.5 1.96875 -2.40625 Z M 1.96875 -2.40625 "/></g></g></g></svg>