<svg xmlns="http://www.w3.org/2000/svg" xmlns:xlink="http://www.w3.org/1999/xlink" width="100" zoomAndPan="magnify" viewBox="0 0 75 74.999997" height="100" preserveAspectRatio="xMidYMid meet" version="1.0"><defs><clipPath id="077f39b611"><path d="M 1 10 L 73.699219 10 L 73.699219 75 L 1 75 Z M 1 10 " clip-rule="nonzero"/></clipPath><clipPath id="21d3badee8"><path d="M 15.476562 24.734375 L 58.226562 24.734375 L 58.226562 67.484375 L 15.476562 67.484375 Z M 15.476562 24.734375 " clip-rule="nonzero"/></clipPath></defs><g clip-path="url(#077f39b611)"><path fill="#2393ae" d="M 45.625 11.023438 C 44.199219 11.023438 42.816406 11.160156 41.488281 11.390625 C 39.785156 11.171875 35.792969 10.910156 34.023438 10.910156 C 16.410156 10.910156 1.003906 17.53125 1.003906 40.707031 C 1.003906 59.535156 15.65625 74.800781 36.289062 74.800781 C 56.921875 74.800781 73.648438 59.535156 73.648438 40.707031 C 73.648438 17.261719 54.140625 11.023438 45.625 11.023438 Z M 45.625 11.023438 " fill-opacity="1" fill-rule="nonzero"/></g><path fill="#265073" d="M 16.410156 0.0742188 C 19.8125 3.484375 22.167969 4.796875 23.214844 10.308594 C 23.835938 13.566406 27.925781 13.453125 27.925781 13.453125 C 27.925781 13.453125 19.8125 17.128906 16.410156 20.539062 C 16.410156 20.539062 26.617188 17.128906 30.019531 17.128906 C 30.019531 17.128906 36.824219 20.539062 36.824219 23.949219 C 36.824219 23.949219 36.824219 17.128906 33.421875 17.128906 C 33.421875 17.128906 43.625 17.128906 43.625 23.949219 C 43.625 23.949219 43.625 13.714844 40.222656 13.714844 C 40.222656 13.714844 50.429688 10.308594 53.832031 13.714844 C 53.832031 13.714844 50.328125 10.132812 43.625 10.308594 C 43.625 10.308594 47.03125 6.894531 53.832031 6.894531 C 53.832031 6.894531 42.84375 3.746094 39.441406 10.570312 C 39.441406 10.570312 36.5625 7.683594 42.320312 1.910156 C 42.320312 1.910156 33.421875 3.484375 33.421875 10.308594 C 33.421875 10.308594 30.195312 10.222656 27.925781 7.683594 C 23.476562 2.699219 16.410156 0.0742188 16.410156 0.0742188 Z M 16.410156 0.0742188 " fill-opacity="1" fill-rule="nonzero"/><g clip-path="url(#21d3badee8)"><path fill="#ffffff" d="M 36.851562 24.734375 C 36.152344 24.734375 35.453125 24.765625 34.757812 24.835938 C 34.058594 24.90625 33.367188 25.007812 32.683594 25.144531 C 31.996094 25.28125 31.316406 25.449219 30.648438 25.652344 C 29.976562 25.855469 29.320312 26.09375 28.671875 26.359375 C 28.023438 26.628906 27.394531 26.925781 26.777344 27.257812 C 26.160156 27.585938 25.558594 27.945312 24.976562 28.335938 C 24.394531 28.722656 23.832031 29.140625 23.292969 29.585938 C 22.75 30.027344 22.234375 30.5 21.738281 30.992188 C 21.242188 31.488281 20.773438 32.007812 20.328125 32.546875 C 19.886719 33.089844 19.46875 33.652344 19.078125 34.234375 C 18.691406 34.816406 18.332031 35.414062 18 36.03125 C 17.671875 36.648438 17.371094 37.28125 17.105469 37.929688 C 16.835938 38.574219 16.601562 39.234375 16.398438 39.902344 C 16.195312 40.574219 16.023438 41.25 15.886719 41.9375 C 15.75 42.625 15.648438 43.316406 15.578125 44.011719 C 15.511719 44.710938 15.476562 45.40625 15.476562 46.109375 C 15.476562 46.808594 15.511719 47.507812 15.578125 48.203125 C 15.648438 48.898438 15.75 49.589844 15.886719 50.277344 C 16.023438 50.964844 16.195312 51.644531 16.398438 52.3125 C 16.601562 52.984375 16.835938 53.640625 17.105469 54.289062 C 17.371094 54.933594 17.671875 55.566406 18 56.183594 C 18.332031 56.800781 18.691406 57.402344 19.078125 57.984375 C 19.46875 58.566406 19.886719 59.125 20.328125 59.667969 C 20.773438 60.210938 21.242188 60.726562 21.738281 61.222656 C 22.234375 61.71875 22.75 62.1875 23.292969 62.632812 C 23.832031 63.074219 24.394531 63.492188 24.976562 63.878906 C 25.558594 64.269531 26.160156 64.628906 26.777344 64.960938 C 27.394531 65.289062 28.023438 65.589844 28.671875 65.855469 C 29.320312 66.125 29.976562 66.359375 30.648438 66.5625 C 31.316406 66.765625 31.996094 66.9375 32.683594 67.070312 C 33.367188 67.207031 34.058594 67.3125 34.757812 67.378906 C 35.453125 67.449219 36.152344 67.484375 36.851562 67.484375 C 37.550781 67.484375 38.25 67.449219 38.945312 67.378906 C 39.644531 67.3125 40.335938 67.207031 41.023438 67.070312 C 41.707031 66.9375 42.386719 66.765625 43.058594 66.5625 C 43.726562 66.359375 44.386719 66.125 45.03125 65.855469 C 45.679688 65.589844 46.3125 65.289062 46.929688 64.960938 C 47.546875 64.628906 48.144531 64.269531 48.726562 63.878906 C 49.308594 63.492188 49.871094 63.074219 50.414062 62.632812 C 50.953125 62.1875 51.472656 61.71875 51.964844 61.222656 C 52.460938 60.726562 52.929688 60.210938 53.375 59.667969 C 53.820312 59.125 54.234375 58.566406 54.625 57.984375 C 55.011719 57.402344 55.371094 56.800781 55.703125 56.183594 C 56.03125 55.566406 56.332031 54.933594 56.601562 54.289062 C 56.867188 53.640625 57.101562 52.984375 57.304688 52.3125 C 57.511719 51.644531 57.679688 50.964844 57.816406 50.277344 C 57.953125 49.589844 58.054688 48.898438 58.125 48.203125 C 58.191406 47.507812 58.226562 46.808594 58.226562 46.109375 C 58.226562 45.40625 58.191406 44.710938 58.121094 44.011719 C 58.050781 43.316406 57.949219 42.625 57.8125 41.941406 C 57.675781 41.253906 57.503906 40.574219 57.300781 39.90625 C 57.097656 39.234375 56.863281 38.578125 56.59375 37.933594 C 56.324219 37.285156 56.027344 36.652344 55.695312 36.035156 C 55.367188 35.417969 55.007812 34.820312 54.617188 34.238281 C 54.226562 33.65625 53.8125 33.09375 53.367188 32.554688 C 52.921875 32.011719 52.453125 31.496094 51.960938 31 C 51.464844 30.503906 50.945312 30.035156 50.40625 29.59375 C 49.863281 29.148438 49.304688 28.730469 48.722656 28.34375 C 48.140625 27.953125 47.539062 27.59375 46.921875 27.265625 C 46.304688 26.933594 45.675781 26.632812 45.027344 26.367188 C 44.382812 26.097656 43.722656 25.863281 43.054688 25.660156 C 42.382812 25.457031 41.707031 25.285156 41.019531 25.148438 C 40.335938 25.011719 39.644531 24.90625 38.945312 24.839844 C 38.25 24.769531 37.550781 24.734375 36.851562 24.734375 Z M 36.851562 66.105469 C 36.195312 66.105469 35.542969 66.070312 34.890625 66.007812 C 34.242188 65.945312 33.59375 65.847656 32.949219 65.71875 C 32.308594 65.59375 31.675781 65.433594 31.046875 65.242188 C 30.421875 65.054688 29.804688 64.832031 29.199219 64.582031 C 28.59375 64.332031 28.003906 64.050781 27.425781 63.742188 C 26.847656 63.433594 26.289062 63.097656 25.742188 62.734375 C 25.199219 62.371094 24.671875 61.980469 24.167969 61.566406 C 23.660156 61.148438 23.175781 60.710938 22.710938 60.246094 C 22.25 59.785156 21.808594 59.300781 21.394531 58.792969 C 20.980469 58.285156 20.589844 57.761719 20.226562 57.21875 C 19.863281 56.671875 19.527344 56.113281 19.21875 55.535156 C 18.910156 54.957031 18.628906 54.363281 18.378906 53.761719 C 18.128906 53.15625 17.90625 52.539062 17.71875 51.914062 C 17.527344 51.285156 17.367188 50.652344 17.238281 50.007812 C 17.113281 49.367188 17.015625 48.71875 16.953125 48.066406 C 16.886719 47.417969 16.855469 46.761719 16.855469 46.109375 C 16.855469 45.453125 16.886719 44.800781 16.953125 44.148438 C 17.015625 43.496094 17.113281 42.847656 17.238281 42.207031 C 17.367188 41.566406 17.527344 40.929688 17.71875 40.304688 C 17.90625 39.675781 18.128906 39.0625 18.378906 38.457031 C 18.628906 37.851562 18.910156 37.257812 19.21875 36.683594 C 19.527344 36.105469 19.863281 35.542969 20.226562 35 C 20.589844 34.453125 20.980469 33.929688 21.394531 33.421875 C 21.808594 32.917969 22.25 32.433594 22.710938 31.96875 C 23.175781 31.503906 23.660156 31.066406 24.167969 30.652344 C 24.671875 30.234375 25.199219 29.847656 25.742188 29.480469 C 26.289062 29.117188 26.847656 28.78125 27.425781 28.472656 C 28.003906 28.164062 28.59375 27.882812 29.199219 27.632812 C 29.804688 27.382812 30.421875 27.164062 31.046875 26.972656 C 31.675781 26.78125 32.308594 26.625 32.949219 26.496094 C 33.59375 26.367188 34.242188 26.273438 34.890625 26.207031 C 35.542969 26.144531 36.195312 26.113281 36.851562 26.113281 C 37.507812 26.113281 38.160156 26.144531 38.8125 26.207031 C 39.464844 26.273438 40.109375 26.367188 40.753906 26.496094 C 41.394531 26.625 42.03125 26.78125 42.65625 26.972656 C 43.28125 27.164062 43.898438 27.382812 44.503906 27.632812 C 45.109375 27.882812 45.699219 28.164062 46.277344 28.472656 C 46.855469 28.78125 47.417969 29.117188 47.960938 29.480469 C 48.503906 29.847656 49.03125 30.234375 49.539062 30.652344 C 50.042969 31.066406 50.527344 31.503906 50.992188 31.96875 C 51.453125 32.433594 51.894531 32.917969 52.308594 33.421875 C 52.722656 33.929688 53.113281 34.453125 53.476562 35 C 53.84375 35.542969 54.179688 36.105469 54.488281 36.683594 C 54.796875 37.257812 55.074219 37.851562 55.324219 38.457031 C 55.578125 39.0625 55.796875 39.675781 55.988281 40.304688 C 56.175781 40.929688 56.335938 41.566406 56.464844 42.207031 C 56.589844 42.847656 56.6875 43.496094 56.75 44.148438 C 56.816406 44.800781 56.847656 45.453125 56.847656 46.109375 C 56.847656 46.761719 56.8125 47.414062 56.75 48.066406 C 56.683594 48.71875 56.589844 49.367188 56.460938 50.007812 C 56.332031 50.648438 56.171875 51.285156 55.980469 51.910156 C 55.792969 52.535156 55.570312 53.152344 55.320312 53.757812 C 55.070312 54.359375 54.789062 54.953125 54.480469 55.53125 C 54.171875 56.105469 53.835938 56.667969 53.472656 57.210938 C 53.105469 57.757812 52.71875 58.28125 52.300781 58.789062 C 51.886719 59.292969 51.449219 59.777344 50.984375 60.242188 C 50.523438 60.703125 50.039062 61.144531 49.53125 61.558594 C 49.023438 61.972656 48.5 62.363281 47.957031 62.726562 C 47.410156 63.089844 46.851562 63.425781 46.273438 63.734375 C 45.695312 64.046875 45.105469 64.324219 44.5 64.574219 C 43.894531 64.828125 43.28125 65.046875 42.652344 65.238281 C 42.027344 65.429688 41.394531 65.585938 40.75 65.714844 C 40.109375 65.84375 39.460938 65.941406 38.8125 66.003906 C 38.160156 66.070312 37.507812 66.101562 36.851562 66.105469 Z M 36.851562 66.105469 " fill-opacity="1" fill-rule="nonzero"/></g><path fill="#ffffff" d="M 36.851562 56.449219 L 26.507812 56.449219 C 26.320312 56.449219 26.15625 56.382812 26.023438 56.25 C 25.886719 56.113281 25.820312 55.953125 25.820312 55.761719 L 25.820312 54.382812 C 25.820312 53.976562 25.859375 53.570312 25.941406 53.171875 C 26.019531 52.773438 26.136719 52.382812 26.292969 52.007812 C 26.449219 51.632812 26.640625 51.273438 26.867188 50.9375 C 27.09375 50.597656 27.351562 50.285156 27.640625 49.996094 C 27.925781 49.707031 28.242188 49.449219 28.578125 49.222656 C 28.917969 49 29.273438 48.808594 29.652344 48.652344 C 30.027344 48.496094 30.414062 48.375 30.816406 48.296875 C 31.214844 48.21875 31.617188 48.175781 32.023438 48.175781 L 34.785156 48.175781 C 35.054688 48.175781 35.328125 48.160156 35.597656 48.128906 C 35.871094 48.097656 36.136719 48.050781 36.402344 47.988281 C 36.667969 47.925781 36.929688 47.847656 37.183594 47.753906 C 37.441406 47.660156 37.691406 47.550781 37.933594 47.429688 C 38.175781 47.304688 38.410156 47.167969 38.636719 47.015625 C 38.863281 46.863281 39.082031 46.699219 39.289062 46.523438 C 39.496094 46.347656 39.691406 46.160156 39.878906 45.960938 C 40.0625 45.757812 40.238281 45.546875 40.398438 45.328125 C 40.558594 45.109375 40.703125 44.878906 40.835938 44.640625 C 40.96875 44.402344 41.089844 44.15625 41.191406 43.90625 C 41.296875 43.65625 41.386719 43.398438 41.460938 43.132812 C 41.535156 42.871094 41.59375 42.605469 41.636719 42.335938 C 41.675781 42.066406 41.703125 41.796875 41.714844 41.523438 C 41.722656 41.253906 41.71875 40.980469 41.695312 40.707031 C 41.675781 40.4375 41.636719 40.167969 41.582031 39.898438 C 41.53125 39.632812 41.460938 39.371094 41.375 39.109375 C 41.292969 38.851562 41.191406 38.597656 41.078125 38.351562 C 40.960938 38.101562 40.832031 37.863281 40.691406 37.632812 C 40.546875 37.398438 40.390625 37.175781 40.222656 36.964844 C 40.050781 36.75 39.871094 36.546875 39.675781 36.355469 C 39.484375 36.164062 39.28125 35.984375 39.066406 35.816406 C 38.851562 35.648438 38.625 35.492188 38.394531 35.351562 C 38.160156 35.207031 37.921875 35.082031 37.671875 34.96875 C 37.425781 34.855469 37.171875 34.757812 36.910156 34.675781 C 36.652344 34.589844 36.386719 34.523438 36.121094 34.472656 C 35.851562 34.421875 35.582031 34.382812 35.308594 34.363281 C 35.039062 34.34375 34.765625 34.339844 34.492188 34.351562 C 34.222656 34.363281 33.949219 34.394531 33.683594 34.4375 C 33.414062 34.480469 33.148438 34.542969 32.886719 34.617188 C 32.625 34.691406 32.367188 34.785156 32.117188 34.890625 C 31.863281 34.996094 31.621094 35.117188 31.382812 35.25 C 31.148438 35.386719 30.917969 35.535156 30.699219 35.695312 C 30.480469 35.855469 30.269531 36.03125 30.070312 36.21875 C 29.875 36.40625 29.6875 36.601562 29.511719 36.8125 C 29.335938 37.019531 29.171875 37.238281 29.023438 37.464844 C 28.875 37.695312 28.738281 37.929688 28.617188 38.171875 C 28.496094 38.417969 28.386719 38.667969 28.296875 38.925781 C 28.203125 39.179688 28.125 39.441406 28.066406 39.707031 C 28.003906 39.972656 27.957031 40.242188 27.929688 40.511719 C 27.898438 40.785156 27.886719 41.054688 27.886719 41.328125 C 27.890625 41.601562 27.910156 41.871094 27.945312 42.140625 C 27.980469 42.414062 28.03125 42.679688 28.097656 42.945312 C 28.164062 43.207031 28.246094 43.46875 28.339844 43.722656 C 28.4375 43.976562 28.550781 44.226562 28.675781 44.46875 C 28.804688 44.707031 28.941406 44.941406 29.097656 45.167969 C 29.25 45.390625 29.417969 45.605469 29.597656 45.8125 C 29.777344 46.019531 29.96875 46.210938 30.167969 46.394531 C 30.371094 46.578125 30.585938 46.746094 30.808594 46.90625 C 30.367188 46.976562 29.9375 47.085938 29.515625 47.234375 C 29.09375 47.382812 28.691406 47.566406 28.300781 47.785156 C 27.914062 48.003906 27.546875 48.253906 27.203125 48.539062 C 26.859375 48.824219 26.539062 49.136719 26.25 49.476562 C 25.960938 49.816406 25.707031 50.175781 25.480469 50.5625 C 25.253906 50.949219 25.066406 51.347656 24.910156 51.769531 C 24.753906 52.1875 24.640625 52.613281 24.558594 53.054688 C 24.480469 53.492188 24.441406 53.9375 24.441406 54.382812 L 24.441406 55.761719 C 24.441406 56.035156 24.492188 56.300781 24.597656 56.550781 C 24.703125 56.804688 24.851562 57.027344 25.046875 57.222656 C 25.242188 57.417969 25.464844 57.566406 25.71875 57.671875 C 25.972656 57.777344 26.234375 57.828125 26.507812 57.828125 L 36.851562 57.828125 C 37.042969 57.828125 37.203125 57.761719 37.339844 57.628906 C 37.472656 57.492188 37.542969 57.332031 37.542969 57.140625 C 37.542969 56.949219 37.472656 56.789062 37.339844 56.652344 C 37.203125 56.519531 37.042969 56.449219 36.851562 56.449219 Z M 29.265625 41.28125 C 29.265625 40.917969 29.300781 40.558594 29.375 40.207031 C 29.445312 39.851562 29.546875 39.503906 29.6875 39.171875 C 29.824219 38.835938 29.996094 38.519531 30.195312 38.214844 C 30.398438 37.914062 30.625 37.636719 30.882812 37.378906 C 31.140625 37.125 31.417969 36.894531 31.71875 36.695312 C 32.019531 36.492188 32.335938 36.324219 32.671875 36.183594 C 33.007812 36.046875 33.351562 35.941406 33.707031 35.871094 C 34.0625 35.800781 34.421875 35.765625 34.785156 35.765625 C 35.144531 35.765625 35.503906 35.800781 35.859375 35.871094 C 36.214844 35.941406 36.558594 36.046875 36.894531 36.183594 C 37.230469 36.324219 37.546875 36.492188 37.847656 36.695312 C 38.148438 36.894531 38.429688 37.125 38.683594 37.378906 C 38.941406 37.636719 39.167969 37.914062 39.371094 38.214844 C 39.570312 38.519531 39.742188 38.835938 39.878906 39.171875 C 40.019531 39.503906 40.121094 39.851562 40.195312 40.207031 C 40.265625 40.558594 40.300781 40.917969 40.300781 41.28125 C 40.300781 41.644531 40.265625 42.003906 40.195312 42.359375 C 40.121094 42.710938 40.019531 43.058594 39.878906 43.390625 C 39.742188 43.726562 39.570312 44.042969 39.371094 44.347656 C 39.167969 44.648438 38.941406 44.925781 38.683594 45.183594 C 38.429688 45.4375 38.148438 45.667969 37.847656 45.867188 C 37.546875 46.070312 37.230469 46.238281 36.894531 46.378906 C 36.558594 46.515625 36.214844 46.621094 35.859375 46.691406 C 35.503906 46.761719 35.144531 46.796875 34.785156 46.796875 C 34.421875 46.796875 34.0625 46.761719 33.707031 46.691406 C 33.351562 46.621094 33.007812 46.515625 32.671875 46.375 C 32.339844 46.238281 32.019531 46.066406 31.71875 45.867188 C 31.417969 45.664062 31.140625 45.4375 30.886719 45.179688 C 30.628906 44.925781 30.398438 44.644531 30.199219 44.34375 C 29.996094 44.042969 29.828125 43.726562 29.6875 43.390625 C 29.550781 43.058594 29.445312 42.710938 29.375 42.355469 C 29.304688 42.003906 29.269531 41.644531 29.265625 41.28125 Z M 29.265625 41.28125 " fill-opacity="1" fill-rule="nonzero"/><path fill="#ffffff" d="M 48.066406 47.710938 L 40.96875 55.453125 L 38.027344 52.515625 C 37.894531 52.386719 37.730469 52.320312 37.542969 52.320312 C 37.355469 52.324219 37.195312 52.390625 37.0625 52.523438 C 36.929688 52.65625 36.863281 52.816406 36.859375 53.003906 C 36.859375 53.195312 36.921875 53.355469 37.054688 53.492188 L 40.5 56.9375 C 40.640625 57.074219 40.808594 57.140625 41.003906 57.136719 C 41.199219 57.132812 41.363281 57.058594 41.496094 56.917969 L 49.082031 48.640625 C 49.210938 48.503906 49.269531 48.335938 49.261719 48.148438 C 49.253906 47.957031 49.179688 47.796875 49.039062 47.667969 C 48.898438 47.539062 48.734375 47.480469 48.542969 47.488281 C 48.355469 47.496094 48.195312 47.570312 48.066406 47.710938 Z M 48.066406 47.710938 " fill-opacity="1" fill-rule="nonzero"/></svg>