<svg xmlns="http://www.w3.org/2000/svg" xmlns:xlink="http://www.w3.org/1999/xlink" width="300" zoomAndPan="magnify" viewBox="0 0 224.87999 74.999997" height="100" preserveAspectRatio="xMidYMid meet" version="1.0"><defs><g/><clipPath id="f60d45f065"><path d="M 0 0.0195312 L 224.761719 0.0195312 L 224.761719 74.667969 L 0 74.667969 Z M 0 0.0195312 " clip-rule="nonzero"/></clipPath><clipPath id="bc403543e8"><path d="M 9 11.828125 L 45.574219 11.828125 L 45.574219 61.300781 L 9 61.300781 Z M 9 11.828125 " clip-rule="nonzero"/></clipPath><clipPath id="a231bbc05c"><path d="M 161.175781 35 L 190.410156 35 L 190.410156 60.929688 L 161.175781 60.929688 Z M 161.175781 35 " clip-rule="nonzero"/></clipPath><clipPath id="7a0508bb84"><path d="M 167 30.945312 L 183 30.945312 L 183 41 L 167 41 Z M 167 30.945312 " clip-rule="nonzero"/></clipPath><clipPath id="fa65abf62d"><path d="M 181 13 L 197 13 L 197 28 L 181 28 Z M 181 13 " clip-rule="nonzero"/></clipPath><clipPath id="df8516a329"><path d="M 180.394531 17.433594 L 194.242188 11.691406 L 212.328125 55.316406 L 198.476562 61.058594 Z M 180.394531 17.433594 " clip-rule="nonzero"/></clipPath><clipPath id="4205058f74"><path d="M 180.394531 17.433594 L 194.242188 11.691406 L 212.328125 55.316406 L 198.476562 61.058594 Z M 180.394531 17.433594 " clip-rule="nonzero"/></clipPath><clipPath id="05ee9288de"><path d="M 180.40625 17.429688 L 194.253906 11.6875 L 199.542969 24.445312 L 185.695312 30.183594 Z M 180.40625 17.429688 " clip-rule="nonzero"/></clipPath><clipPath id="76540d698c"><path d="M 180.40625 17.429688 L 194.230469 11.695312 L 199.519531 24.453125 L 185.695312 30.183594 Z M 180.40625 17.429688 " clip-rule="nonzero"/></clipPath><clipPath id="87c52a3d04"><path d="M 187 26 L 208 26 L 208 59 L 187 59 Z M 187 26 " clip-rule="nonzero"/></clipPath><clipPath id="bdc960f636"><path d="M 180.394531 17.433594 L 194.242188 11.691406 L 212.328125 55.316406 L 198.476562 61.058594 Z M 180.394531 17.433594 " clip-rule="nonzero"/></clipPath><clipPath id="fb3baa3d14"><path d="M 180.394531 17.433594 L 194.242188 11.691406 L 212.328125 55.316406 L 198.476562 61.058594 Z M 180.394531 17.433594 " clip-rule="nonzero"/></clipPath><clipPath id="079f3fcb10"><path d="M 188 33 L 197 33 L 197 37 L 188 37 Z M 188 33 " clip-rule="nonzero"/></clipPath><clipPath id="e25a318199"><path d="M 180.394531 17.433594 L 194.242188 11.691406 L 212.328125 55.316406 L 198.476562 61.058594 Z M 180.394531 17.433594 " clip-rule="nonzero"/></clipPath><clipPath id="7e1d97f6ca"><path d="M 180.394531 17.433594 L 194.242188 11.691406 L 212.328125 55.316406 L 198.476562 61.058594 Z M 180.394531 17.433594 " clip-rule="nonzero"/></clipPath><clipPath id="f3be1d83c7"><path d="M 194 46 L 202 46 L 202 50 L 194 50 Z M 194 46 " clip-rule="nonzero"/></clipPath><clipPath id="d9a0d4ac16"><path d="M 180.394531 17.433594 L 194.242188 11.691406 L 212.328125 55.316406 L 198.476562 61.058594 Z M 180.394531 17.433594 " clip-rule="nonzero"/></clipPath><clipPath id="a68c5e2073"><path d="M 180.394531 17.433594 L 194.242188 11.691406 L 212.328125 55.316406 L 198.476562 61.058594 Z M 180.394531 17.433594 " clip-rule="nonzero"/></clipPath><clipPath id="408d8ca0d8"><path d="M 197 35 L 204 35 L 204 40 L 197 40 Z M 197 35 " clip-rule="nonzero"/></clipPath><clipPath id="272520fa72"><path d="M 180.394531 17.433594 L 194.242188 11.691406 L 212.328125 55.316406 L 198.476562 61.058594 Z M 180.394531 17.433594 " clip-rule="nonzero"/></clipPath><clipPath id="a0c7d1dbc5"><path d="M 180.394531 17.433594 L 194.242188 11.691406 L 212.328125 55.316406 L 198.476562 61.058594 Z M 180.394531 17.433594 " clip-rule="nonzero"/></clipPath><clipPath id="6d1f181a96"><path d="M 203 50 L 208 50 L 208 54 L 203 54 Z M 203 50 " clip-rule="nonzero"/></clipPath><clipPath id="70e87ad7dd"><path d="M 180.394531 17.433594 L 194.242188 11.691406 L 212.328125 55.316406 L 198.476562 61.058594 Z M 180.394531 17.433594 " clip-rule="nonzero"/></clipPath><clipPath id="b3735eaa31"><path d="M 180.394531 17.433594 L 194.242188 11.691406 L 212.328125 55.316406 L 198.476562 61.058594 Z M 180.394531 17.433594 " clip-rule="nonzero"/></clipPath><clipPath id="d5ba2e054a"><path d="M 18.582031 24.933594 L 21.542969 24.933594 L 21.542969 27.894531 L 18.582031 27.894531 Z M 18.582031 24.933594 " clip-rule="nonzero"/></clipPath><clipPath id="eed222c2a0"><path d="M 20.0625 24.933594 C 19.242188 24.933594 18.582031 25.597656 18.582031 26.414062 C 18.582031 27.234375 19.242188 27.894531 20.0625 27.894531 C 20.878906 27.894531 21.542969 27.234375 21.542969 26.414062 C 21.542969 25.597656 20.878906 24.933594 20.0625 24.933594 " clip-rule="nonzero"/></clipPath><clipPath id="2ae1034b26"><path d="M 34.285156 24.933594 L 37.246094 24.933594 L 37.246094 27.894531 L 34.285156 27.894531 Z M 34.285156 24.933594 " clip-rule="nonzero"/></clipPath><clipPath id="92a0c3ca18"><path d="M 35.765625 24.933594 C 34.949219 24.933594 34.285156 25.597656 34.285156 26.414062 C 34.285156 27.234375 34.949219 27.894531 35.765625 27.894531 C 36.582031 27.894531 37.246094 27.234375 37.246094 26.414062 C 37.246094 25.597656 36.582031 24.933594 35.765625 24.933594 " clip-rule="nonzero"/></clipPath></defs><g clip-path="url(#f60d45f065)"><path fill="#2393ae" d="M 0 0.0195312 L 224.617188 0.0195312 L 224.617188 74.894531 L 0 74.894531 Z M 0 0.0195312 " fill-opacity="1" fill-rule="nonzero"/></g><g clip-path="url(#bc403543e8)"><path fill="#265073" d="M 45.265625 32.710938 L 44.429688 25.289062 C 44.28125 23.988281 43.175781 23 41.867188 23 L 37.699219 23 L 37.699219 20.882812 C 37.699219 15.910156 33.664062 11.871094 28.703125 11.871094 C 23.742188 11.871094 19.710938 15.910156 19.710938 20.882812 L 19.710938 23 L 15.539062 23 C 14.230469 23 13.128906 23.988281 12.980469 25.289062 L 9.210938 58.414062 C 9.027344 60 10.269531 61.378906 11.863281 61.378906 L 13.265625 61.378906 C 19.054688 36.496094 37.605469 33.042969 45.265625 32.710938 Z M 36.550781 25.703125 C 37.179688 25.703125 37.699219 26.21875 37.699219 26.851562 C 37.699219 27.484375 37.179688 28.003906 36.550781 28.003906 C 35.917969 28.003906 35.398438 27.484375 35.398438 26.851562 C 35.398438 26.21875 35.917969 25.703125 36.550781 25.703125 Z M 22.007812 20.894531 C 22.007812 17.199219 25.003906 14.183594 28.703125 14.183594 C 32.402344 14.183594 35.398438 17.199219 35.398438 20.894531 L 35.398438 23.011719 L 22.007812 23.011719 Z M 20.859375 25.703125 C 21.492188 25.703125 22.007812 26.21875 22.007812 26.851562 C 22.007812 27.484375 21.492188 28.003906 20.859375 28.003906 C 20.226562 28.003906 19.710938 27.484375 19.710938 26.851562 C 19.710938 26.21875 20.226562 25.703125 20.859375 25.703125 Z M 20.859375 25.703125 " fill-opacity="1" fill-rule="nonzero"/></g><g clip-path="url(#a231bbc05c)"><path fill="#265073" d="M 179.128906 35.347656 C 178.554688 35.347656 178 35.402344 177.464844 35.496094 C 176.78125 35.410156 175.175781 35.304688 174.464844 35.304688 C 167.390625 35.304688 161.199219 37.953125 161.199219 47.222656 C 161.199219 54.753906 167.085938 60.859375 175.378906 60.859375 C 183.667969 60.859375 190.390625 54.753906 190.390625 47.222656 C 190.390625 37.84375 182.550781 35.347656 179.128906 35.347656 Z M 179.128906 35.347656 " fill-opacity="1" fill-rule="nonzero"/></g><g clip-path="url(#7a0508bb84)"><path fill="#d4ffea" d="M 167.390625 30.972656 C 168.757812 32.335938 169.703125 32.859375 170.125 35.0625 C 170.375 36.367188 172.015625 36.320312 172.015625 36.320312 C 172.015625 36.320312 168.757812 37.792969 167.390625 39.15625 C 167.390625 39.15625 171.492188 37.792969 172.859375 37.792969 C 172.859375 37.792969 175.59375 39.15625 175.59375 40.519531 C 175.59375 40.519531 175.59375 37.792969 174.226562 37.792969 C 174.226562 37.792969 178.324219 37.792969 178.324219 40.519531 C 178.324219 40.519531 178.324219 36.425781 176.957031 36.425781 C 176.957031 36.425781 181.058594 35.0625 182.425781 36.425781 C 182.425781 36.425781 181.019531 34.992188 178.324219 35.0625 C 178.324219 35.0625 179.695312 33.699219 182.425781 33.699219 C 182.425781 33.699219 178.011719 32.4375 176.644531 35.167969 C 176.644531 35.167969 175.488281 34.015625 177.800781 31.703125 C 177.800781 31.703125 174.226562 32.335938 174.226562 35.0625 C 174.226562 35.0625 172.929688 35.03125 172.015625 34.015625 C 170.230469 32.019531 167.390625 30.972656 167.390625 30.972656 Z M 167.390625 30.972656 " fill-opacity="1" fill-rule="nonzero"/></g><g clip-path="url(#fa65abf62d)"><g clip-path="url(#df8516a329)"><g clip-path="url(#4205058f74)"><g clip-path="url(#05ee9288de)"><g clip-path="url(#76540d698c)"><path fill="#d4ffea" d="M 194.53125 13.675781 C 193.023438 14.804688 191.996094 16.335938 191.414062 18.042969 C 190.507812 16.324219 189.132812 15.039062 187.253906 14.589844 C 186.511719 16.292969 186.390625 18.101562 186.746094 19.84375 C 185.082031 18.820312 183.226562 18.402344 181.359375 18.933594 C 181.960938 23.953125 187.074219 27.382812 192.359375 27.410156 C 192.359375 27.414062 192.363281 27.414062 192.363281 27.414062 C 192.363281 27.414062 192.363281 27.414062 192.363281 27.410156 C 192.367188 27.410156 192.367188 27.410156 192.367188 27.410156 C 192.367188 27.410156 192.367188 27.414062 192.367188 27.414062 C 192.367188 27.414062 192.367188 27.414062 192.367188 27.410156 C 192.371094 27.410156 192.371094 27.410156 192.371094 27.410156 C 196.085938 23.289062 197.984375 16.96875 194.53125 13.675781 " fill-opacity="1" fill-rule="nonzero"/></g></g></g></g></g><g clip-path="url(#87c52a3d04)"><g clip-path="url(#bdc960f636)"><g clip-path="url(#fb3baa3d14)"><path fill="#265073" d="M 203.320312 35.667969 C 203.367188 35.816406 203.417969 35.972656 203.464844 36.125 L 203.464844 36.128906 C 203.582031 36.507812 203.703125 36.898438 203.824219 37.300781 C 203.835938 37.328125 203.84375 37.359375 203.851562 37.386719 C 204.34375 39.027344 204.867188 40.859375 205.441406 42.882812 C 205.859375 44.378906 206.746094 47.570312 207.140625 50.671875 C 207.15625 50.816406 207.175781 50.964844 207.191406 51.109375 C 207.199219 51.175781 207.207031 51.242188 207.214844 51.304688 C 207.238281 51.5625 207.261719 51.816406 207.28125 52.074219 C 207.289062 52.15625 207.292969 52.242188 207.300781 52.324219 C 207.46875 55.078125 207.082031 57.488281 205.402344 58.1875 C 202.21875 59.503906 197.960938 53.191406 195.6875 49.371094 C 195.65625 49.3125 195.621094 49.257812 195.589844 49.207031 C 195.40625 48.890625 195.234375 48.597656 195.078125 48.328125 C 194.945312 48.097656 194.824219 47.882812 194.714844 47.6875 C 194.65625 47.585938 194.601562 47.488281 194.550781 47.398438 C 192.109375 43.035156 190.242188 39.65625 189.128906 36.984375 L 189.125 36.976562 C 188.878906 36.390625 188.671875 35.835938 188.503906 35.316406 C 188.492188 35.296875 188.488281 35.277344 188.480469 35.253906 C 187.203125 31.292969 188.148438 29.136719 192.132812 27.484375 L 193.058594 27.101562 C 198.59375 24.804688 200.671875 27.351562 203.320312 35.667969 " fill-opacity="1" fill-rule="nonzero"/></g></g></g><g clip-path="url(#079f3fcb10)"><g clip-path="url(#e25a318199)"><g clip-path="url(#7e1d97f6ca)"><path fill="#d4ffea" d="M 189.125 36.976562 C 188.878906 36.390625 188.671875 35.835938 188.503906 35.316406 C 190.53125 34.949219 193.660156 34.335938 195.746094 33.691406 C 198.230469 32.925781 192.25 35.601562 189.125 36.976562 " fill-opacity="1" fill-rule="nonzero"/></g></g></g><g clip-path="url(#f3be1d83c7)"><g clip-path="url(#d9a0d4ac16)"><g clip-path="url(#a68c5e2073)"><path fill="#d4ffea" d="M 195.589844 49.207031 C 195.40625 48.890625 195.234375 48.597656 195.078125 48.328125 C 194.945312 48.097656 194.824219 47.882812 194.714844 47.6875 C 196.757812 47.351562 199.195312 46.890625 200.949219 46.375 C 203.230469 45.703125 199.007812 47.671875 195.589844 49.207031 " fill-opacity="1" fill-rule="nonzero"/></g></g></g><g clip-path="url(#408d8ca0d8)"><g clip-path="url(#272520fa72)"><g clip-path="url(#a0c7d1dbc5)"><path fill="#d4ffea" d="M 203.320312 35.667969 C 203.367188 35.816406 203.417969 35.972656 203.464844 36.125 L 203.464844 36.128906 C 203.582031 36.507812 203.703125 36.898438 203.824219 37.300781 C 200.488281 38.574219 196.121094 40.175781 198.136719 39.070312 C 199.695312 38.21875 201.703125 36.835938 203.320312 35.667969 " fill-opacity="1" fill-rule="nonzero"/></g></g></g><g clip-path="url(#6d1f181a96)"><g clip-path="url(#70e87ad7dd)"><g clip-path="url(#b3735eaa31)"><path fill="#d4ffea" d="M 207.140625 50.671875 C 207.15625 50.816406 207.175781 50.964844 207.191406 51.109375 C 207.199219 51.175781 207.207031 51.242188 207.214844 51.304688 C 207.238281 51.5625 207.261719 51.816406 207.28125 52.074219 C 204.503906 53.0625 202.273438 53.769531 203.910156 52.832031 C 204.886719 52.269531 206.023438 51.492188 207.140625 50.671875 " fill-opacity="1" fill-rule="nonzero"/></g></g></g><g clip-path="url(#d5ba2e054a)"><g clip-path="url(#eed222c2a0)"><path fill="#d4ffea" d="M 18.582031 24.933594 L 21.542969 24.933594 L 21.542969 27.894531 L 18.582031 27.894531 Z M 18.582031 24.933594 " fill-opacity="1" fill-rule="nonzero"/></g></g><g clip-path="url(#2ae1034b26)"><g clip-path="url(#92a0c3ca18)"><path fill="#d4ffea" d="M 34.285156 24.933594 L 37.246094 24.933594 L 37.246094 27.894531 L 34.285156 27.894531 Z M 34.285156 24.933594 " fill-opacity="1" fill-rule="nonzero"/></g></g><g fill="#ffffff" fill-opacity="1"><g transform="translate(26.463107, 54.574494)"><g><path d="M 11.394531 0 L 14.851562 0 L 8.921875 -14.664062 L 5.929688 -14.664062 L 0.167969 0 L 3.539062 0 L 4.546875 -2.765625 L 10.371094 -2.765625 Z M 7.457031 -10.789062 L 9.382812 -5.53125 L 5.53125 -5.53125 Z M 7.457031 -10.789062 "/></g></g></g><g fill="#ffffff" fill-opacity="1"><g transform="translate(41.501164, 54.574494)"><g><path d="M 10.597656 -11.3125 L 10.097656 -10.179688 C 9.113281 -11.082031 7.8125 -11.625 6.347656 -11.625 C 3.183594 -11.625 0.710938 -9.113281 0.710938 -5.949219 C 0.710938 -2.765625 3.183594 -0.273438 6.347656 -0.273438 C 7.5625 -0.273438 8.671875 -0.648438 9.574219 -1.277344 L 9.574219 -0.859375 C 9.574219 0.796875 8.296875 1.800781 6.746094 1.800781 C 5.613281 1.800781 4.421875 1.277344 4.0625 0.25 L 1.027344 0.25 C 1.550781 2.828125 3.730469 4.398438 6.785156 4.398438 C 10.371094 4.398438 12.570312 2.242188 12.570312 -1.296875 L 12.570312 -11.289062 Z M 6.703125 -3.015625 C 5.027344 -3.015625 3.8125 -4.253906 3.8125 -5.929688 C 3.8125 -7.625 5.027344 -8.859375 6.703125 -8.859375 C 8.378906 -8.859375 9.59375 -7.625 9.59375 -5.929688 C 9.59375 -4.253906 8.378906 -3.015625 6.703125 -3.015625 Z M 6.703125 -3.015625 "/></g></g></g><g fill="#ffffff" fill-opacity="1"><g transform="translate(55.554841, 54.574494)"><g><path d="M 7.246094 -11.375 C 5.78125 -11.375 4.777344 -10.914062 3.960938 -9.910156 L 3.414062 -11.3125 L 1.464844 -11.3125 L 1.464844 0 L 4.523438 0 L 4.523438 -5.867188 C 4.523438 -7.707031 5.195312 -8.484375 6.914062 -8.484375 L 8.253906 -8.484375 L 8.253906 -11.375 Z M 7.246094 -11.375 "/></g></g></g><g fill="#ffffff" fill-opacity="1"><g transform="translate(64.079199, 54.574494)"><g><path d="M 6.828125 0.335938 C 10.328125 0.335938 12.945312 -2.242188 12.945312 -5.65625 C 12.945312 -9.070312 10.328125 -11.625 6.828125 -11.625 C 3.332031 -11.625 0.710938 -9.070312 0.710938 -5.65625 C 0.710938 -2.242188 3.332031 0.335938 6.828125 0.335938 Z M 6.828125 -2.554688 C 5.070312 -2.554688 3.8125 -3.8125 3.8125 -5.65625 C 3.8125 -7.476562 5.070312 -8.757812 6.828125 -8.757812 C 8.589844 -8.757812 9.84375 -7.476562 9.84375 -5.65625 C 9.84375 -3.8125 8.589844 -2.554688 6.828125 -2.554688 Z M 6.828125 -2.554688 "/></g></g></g><g fill="#ffffff" fill-opacity="1"><g transform="translate(77.755875, 54.574494)"><g><path d="M 19.628906 0 L 17.367188 -14.664062 L 14.183594 -14.664062 L 10.203125 -5.65625 L 6.222656 -14.664062 L 3.058594 -14.664062 L 0.753906 0 L 3.980469 0 L 5.425781 -9.550781 L 9.804688 -0.0195312 L 10.578125 -0.0195312 L 14.957031 -9.550781 L 16.402344 0 Z M 19.628906 0 "/></g></g></g><g fill="#ffffff" fill-opacity="1"><g transform="translate(98.17664, 54.574494)"><g><path d="M 10.683594 -11.3125 L 10.371094 -10.242188 C 9.382812 -11.101562 8.105469 -11.625 6.640625 -11.625 C 3.246094 -11.625 0.710938 -9.070312 0.710938 -5.65625 C 0.710938 -2.242188 3.246094 0.335938 6.640625 0.335938 C 8.085938 0.335938 9.34375 -0.167969 10.304688 -1.027344 L 10.578125 0 L 12.964844 0 L 12.964844 -11.3125 Z M 6.890625 -2.554688 C 5.109375 -2.554688 3.8125 -3.894531 3.8125 -5.65625 C 3.8125 -7.4375 5.109375 -8.757812 6.890625 -8.757812 C 8.671875 -8.757812 9.972656 -7.4375 9.972656 -5.65625 C 9.972656 -3.875 8.671875 -2.554688 6.890625 -2.554688 Z M 6.890625 -2.554688 "/></g></g></g><g fill="#ffffff" fill-opacity="1"><g transform="translate(112.628257, 54.574494)"><g><path d="M 7.246094 -11.375 C 5.78125 -11.375 4.777344 -10.914062 3.960938 -9.910156 L 3.414062 -11.3125 L 1.464844 -11.3125 L 1.464844 0 L 4.523438 0 L 4.523438 -5.867188 C 4.523438 -7.707031 5.195312 -8.484375 6.914062 -8.484375 L 8.253906 -8.484375 L 8.253906 -11.375 Z M 7.246094 -11.375 "/></g></g></g><g fill="#ffffff" fill-opacity="1"><g transform="translate(121.152615, 54.574494)"><g><path d="M 11.835938 0 L 7.605469 -5.90625 L 11.4375 -11.3125 L 7.917969 -11.3125 L 4.523438 -6.285156 L 4.523438 -15.375 L 1.464844 -15.375 L 1.464844 0 L 4.523438 0 L 4.523438 -5.40625 L 8.128906 0 Z M 11.835938 0 "/></g></g></g><g fill="#ffffff" fill-opacity="1"><g transform="translate(132.902403, 54.574494)"><g><path d="M 12.441406 -5.675781 C 12.441406 -8.945312 10.054688 -11.625 6.578125 -11.625 C 3.226562 -11.625 0.710938 -9.050781 0.710938 -5.65625 C 0.710938 -2.261719 3.246094 0.335938 6.578125 0.335938 C 9.21875 0.335938 11.375 -1.234375 12.191406 -3.707031 L 8.988281 -3.707031 C 8.527344 -2.890625 7.644531 -2.386719 6.578125 -2.386719 C 5.089844 -2.386719 4.085938 -3.246094 3.8125 -4.796875 L 12.378906 -4.796875 C 12.421875 -5.089844 12.441406 -5.382812 12.441406 -5.675781 Z M 6.578125 -9.007812 C 7.960938 -9.007812 8.945312 -8.253906 9.382812 -6.871094 L 3.894531 -6.871094 C 4.253906 -8.210938 5.214844 -9.007812 6.578125 -9.007812 Z M 6.578125 -9.007812 "/></g></g></g><g fill="#ffffff" fill-opacity="1"><g transform="translate(146.05547, 54.574494)"><g><path d="M 6.996094 -2.722656 C 5.867188 -2.722656 5.238281 -3.351562 5.238281 -4.441406 L 5.238281 -8.839844 L 8.316406 -8.839844 L 8.316406 -11.3125 L 5.195312 -11.3125 L 5.195312 -14.246094 L 4.609375 -14.246094 L 0.148438 -9.511719 L 0.148438 -8.839844 L 2.179688 -8.839844 L 2.179688 -4.023438 C 2.179688 -1.527344 3.707031 0 6.199219 0 L 8.378906 0 L 8.378906 -2.722656 Z M 6.996094 -2.722656 "/></g></g></g></svg>