<svg xmlns="http://www.w3.org/2000/svg" xmlns:xlink="http://www.w3.org/1999/xlink" width="100" zoomAndPan="magnify" viewBox="0 0 75 30.000001" height="40" preserveAspectRatio="xMidYMid meet" version="1.0"><defs><g/><clipPath id="1d7c31cbe3"><path d="M 1.210938 0 L 73.789062 0 L 73.789062 29.03125 L 1.210938 29.03125 Z M 1.210938 0 " clip-rule="nonzero"/></clipPath><clipPath id="2efb5db8f5"><path d="M 3.386719 0 L 71.613281 0 C 72.191406 0 72.746094 0.230469 73.152344 0.636719 C 73.5625 1.046875 73.789062 1.601562 73.789062 2.175781 L 73.789062 27.074219 C 73.789062 27.648438 73.5625 28.203125 73.152344 28.613281 C 72.746094 29.019531 72.191406 29.25 71.613281 29.25 L 3.386719 29.25 C 2.808594 29.25 2.253906 29.019531 1.847656 28.613281 C 1.4375 28.203125 1.210938 27.648438 1.210938 27.074219 L 1.210938 2.175781 C 1.210938 1.601562 1.4375 1.046875 1.847656 0.636719 C 2.253906 0.230469 2.808594 0 3.386719 0 " clip-rule="nonzero"/></clipPath></defs><g clip-path="url(#1d7c31cbe3)"><g clip-path="url(#2efb5db8f5)"><path fill="#265073" d="M 1.210938 0 L 73.847656 0 L 73.847656 29.292969 L 1.210938 29.292969 Z M 1.210938 0 " fill-opacity="1" fill-rule="nonzero"/></g></g><g fill="#ffffff" fill-opacity="1"><g transform="translate(11.944807, 22.177239)"><g><path d="M 12.402344 0 L 16.164062 0 L 9.710938 -15.957031 L 6.453125 -15.957031 L 0.183594 0 L 3.851562 0 L 4.945312 -3.007812 L 11.285156 -3.007812 Z M 8.117188 -11.742188 L 10.214844 -6.019531 L 6.019531 -6.019531 Z M 8.117188 -11.742188 "/></g></g></g><g fill="#ffffff" fill-opacity="1"><g transform="translate(28.311468, 22.177239)"><g><path d="M 21.363281 0 L 18.898438 -15.957031 L 15.433594 -15.957031 L 11.101562 -6.15625 L 6.769531 -15.957031 L 3.328125 -15.957031 L 0.820312 0 L 4.332031 0 L 5.90625 -10.394531 L 10.667969 -0.0234375 L 11.511719 -0.0234375 L 16.277344 -10.394531 L 17.851562 0 Z M 21.363281 0 "/></g></g></g><g fill="#ffffff" fill-opacity="1"><g transform="translate(50.5364, 22.177239)"><g><path d="M 7.113281 0.320312 C 10.417969 0.320312 13.152344 -1.34375 13.152344 -4.789062 C 13.152344 -8.367188 10.097656 -9.117188 7.683594 -9.734375 C 5.972656 -10.144531 4.605469 -10.488281 4.605469 -11.605469 C 4.605469 -12.652344 5.722656 -13.132812 6.839844 -13.132812 C 8.140625 -13.132812 9.277344 -12.492188 9.277344 -11.101562 L 12.675781 -11.101562 C 12.675781 -14.292969 10.601562 -16.253906 6.929688 -16.253906 C 3.398438 -16.253906 1.140625 -14.523438 1.140625 -11.46875 C 1.140625 -8.023438 4.058594 -7.316406 6.472656 -6.726562 C 8.207031 -6.335938 9.667969 -5.996094 9.667969 -4.742188 C 9.667969 -3.554688 8.390625 -2.871094 7.089844 -2.871094 C 5.675781 -2.871094 4.398438 -3.625 4.398438 -5.152344 L 0.910156 -5.152344 C 0.910156 -1.734375 3.441406 0.320312 7.113281 0.320312 Z M 7.113281 0.320312 "/></g></g></g></svg>